<svg xmlns="http://www.w3.org/2000/svg" fill="#4c4c4c" viewBox="0 0 48 48"><path d="M24 4C17.595652 4 11.890701 7.0253275 8.2285156 11.720703L7.9804688 10.316406 A 1.50015 1.50015 0 0 0 6.515625 9.0546875 A 1.50015 1.50015 0 0 0 5.0273438 10.835938L5.8945312 15.759766 A 1.50015 1.50015 0 0 0 7.6328125 16.976562L12.556641 16.109375 A 1.5003693 1.5003693 0 1 0 12.035156 13.154297L10.728516 13.384766C13.841475 9.4960454 18.619092 7 24 7C33.406292 7 41 14.593708 41 24C41 33.406292 33.406292 41 24 41C14.593708 41 7 33.406292 7 24C7 23.854658 7.0021894 23.708402 7.0058594 23.564453 A 1.5004834 1.5004834 0 0 0 4.0058594 23.488281C4.0015263 23.65833 4 23.829342 4 24C4 35.027708 12.972292 44 24 44C35.027708 44 44 35.027708 44 24C44 12.972292 35.027708 4 24 4 z"/></svg>