<svg xmlns="http://www.w3.org/2000/svg" fill='white' viewBox="0 0 26 26"><path d="M10.5 0C9.898438 0 9.292969 0.398438 9.09375 1L8 1C6.898438 1 6 1.898438 6 3L4 3C2.300781 3 1 4.300781 1 6L1 21C1 22.699219 2.300781 24 4 24L8.90625 24C8.605469 23.398438 8.5 22.699219 8.5 22L8.5 21L4 21L4 6L6.3125 6C6.613281 6.601563 7.300781 7 8 7L13 7C13.699219 7 14.386719 6.601563 14.6875 6L17 6L17 7.5L20 7.5L20 6C20 4.300781 18.699219 3 17 3L15 3C15 1.898438 14.101563 1 13 1L11.90625 1C11.707031 0.398438 11.101563 0 10.5 0 Z M 8 3L13 3L13 5L8 5 Z M 14 9C11.800781 9 10 10.800781 10 13L10 22C10 24.199219 11.800781 26 14 26L21 26C23.199219 26 25 24.199219 25 22L25 13C25 10.800781 23.199219 9 21 9 Z M 14 11L21 11C22.101563 11 23 11.898438 23 13L23 22C23 23.101563 22.101563 24 21 24L14 24C12.898438 24 12 23.101563 12 22L12 13C12 11.898438 12.898438 11 14 11 Z M 14 15L14 17L21 17L21 15 Z M 14 19L14 21L21 21L21 19Z"/></svg>